<svg xmlns="http://www.w3.org/2000/svg" viewBox="0 0 512 512">
<path id="twitter-icon" d="M 500.394531 94.78125 C 492.351562 98.351562 484.082031 101.359375 475.632812 103.804688 C 485.636719 92.492188 493.261719 79.179688 497.917969 64.613281 C 498.960938 61.347656 497.878906 57.773438 495.195312 55.636719 C 492.515625 53.5 488.792969 53.246094 485.839844 54.992188 C 467.894531 65.636719 448.535156 73.285156 428.234375 77.757812 C 407.785156 57.777344 380.011719 46.40625 351.300781 46.40625 C 290.695312 46.40625 241.386719 95.710938 241.386719 156.316406 C 241.386719 161.089844 241.691406 165.835938 242.289062 170.515625 C 167.082031 163.914062 97.164062 126.949219 49.152344 68.054688 C 47.441406 65.953125 44.804688 64.824219 42.105469 65.039062 C 39.40625 65.25 36.980469 66.773438 35.617188 69.113281 C 25.878906 85.824219 20.730469 104.933594 20.730469 124.378906 C 20.730469 150.863281 30.183594 175.988281 46.886719 195.625 C 41.808594 193.863281 36.878906 191.667969 32.175781 189.054688 C 29.652344 187.648438 26.570312 187.671875 24.0625 189.109375 C 21.550781 190.546875 19.976562 193.195312 19.910156 196.085938 C 19.898438 196.574219 19.898438 197.058594 19.898438 197.554688 C 19.898438 237.085938 41.175781 272.675781 73.703125 292.074219 C 70.910156 291.796875 68.117188 291.390625 65.339844 290.859375 C 62.480469 290.3125 59.539062 291.316406 57.609375 293.5 C 55.675781 295.679688 55.039062 298.71875 55.929688 301.492188 C 67.96875 339.082031 98.96875 366.730469 136.441406 375.164062 C 105.363281 394.628906 69.816406 404.828125 32.503906 404.828125 C 24.71875 404.828125 16.886719 404.371094 9.222656 403.460938 C 5.417969 403.011719 1.777344 405.257812 0.480469 408.878906 C -0.816406 412.5 0.558594 416.539062 3.796875 418.613281 C 51.730469 449.347656 107.160156 465.59375 164.082031 465.59375 C 275.984375 465.59375 345.988281 412.824219 385.007812 368.558594 C 433.664062 313.359375 461.570312 240.296875 461.570312 168.105469 C 461.570312 165.089844 461.523438 162.042969 461.429688 159.007812 C 480.628906 144.546875 497.15625 127.042969 510.605469 106.921875 C 512.648438 103.867188 512.425781 99.832031 510.058594 97.015625 C 507.695312 94.203125 503.757812 93.292969 500.394531 94.78125 Z M 500.394531 94.78125 "/>
</svg>