<svg xmlns="http://www.w3.org/2000/svg" viewBox="0 0 512 512">
<path id="webhook-icon" d="M 243.621094 114.382812 L 243.125 114.382812 L 238.175781 115.375 C 227.28125 116.695312 216.632812 119.746094 206.234375 124.535156 C 195.835938 129.320312 186.675781 135.675781 178.753906 143.597656 C 165.21875 155.8125 155.8125 170.832031 150.53125 188.65625 C 147.558594 198.5625 146.238281 208.960938 146.570312 219.851562 C 146.898438 230.746094 148.878906 241.144531 152.511719 251.046875 C 158.121094 265.902344 166.707031 278.777344 178.257812 289.671875 L 184.695312 295.613281 L 143.597656 362.460938 C 135.015625 362.128906 127.585938 363.285156 121.316406 365.925781 C 111.410156 370.21875 103.984375 376.820312 99.03125 385.734375 C 96.722656 390.683594 95.238281 395.800781 94.578125 401.082031 C 93.917969 406.363281 94.246094 411.648438 95.566406 416.929688 C 98.207031 426.832031 103.65625 434.753906 111.90625 440.695312 C 116.859375 443.996094 122.304688 446.390625 128.246094 447.875 C 134.191406 449.363281 140.132812 449.691406 146.074219 448.867188 C 152.015625 448.042969 157.710938 445.976562 163.15625 442.675781 C 168.601562 439.375 173.140625 435.25 176.773438 430.296875 C 180.734375 424.6875 183.128906 418.25 183.953125 410.988281 C 184.777344 403.722656 183.871094 396.957031 181.230469 390.683594 C 180.898438 389.035156 179.746094 386.722656 177.765625 383.753906 L 176.277344 380.78125 L 234.707031 285.710938 C 236.6875 282.738281 238.007812 280.429688 238.667969 278.777344 L 233.71875 277.292969 C 230.746094 276.632812 228.601562 275.972656 227.28125 275.3125 C 219.6875 272.011719 212.839844 267.472656 206.730469 261.695312 C 200.625 255.917969 195.921875 249.398438 192.617188 242.136719 C 187.007812 230.25 185.523438 217.871094 188.164062 205 C 189.484375 197.40625 192.289062 190.308594 196.582031 183.707031 C 200.871094 177.105469 205.988281 171.492188 211.929688 166.871094 C 224.144531 157.957031 237.679688 153.5 252.535156 153.5 C 261.445312 153.171875 270.113281 154.738281 278.53125 158.203125 C 286.949219 161.671875 294.292969 166.707031 300.566406 173.308594 C 306.175781 178.589844 310.550781 184.945312 313.6875 192.371094 C 316.824219 199.800781 318.554688 207.308594 318.886719 214.902344 C 318.886719 220.511719 317.894531 227.445312 315.914062 235.699219 L 350.578125 245.105469 L 354.539062 245.601562 C 359.160156 231.40625 360.316406 217.210938 358.003906 203.015625 C 356.683594 192.125 353.464844 181.644531 348.347656 171.574219 C 343.230469 161.507812 336.710938 152.675781 328.789062 145.082031 C 314.925781 131.21875 297.925781 121.976562 277.789062 117.355469 C 275.804688 116.695312 272.835938 116.035156 268.875 115.375 L 261.941406 114.382812 Z M 252.535156 175.785156 C 246.921875 175.785156 241.308594 176.9375 235.699219 179.25 C 230.085938 181.558594 225.050781 184.945312 220.597656 189.398438 C 216.140625 193.855469 212.921875 199.054688 210.941406 205 C 208.300781 211.601562 207.640625 218.863281 208.960938 226.785156 C 209.949219 232.726562 212.261719 238.339844 215.890625 243.621094 C 219.523438 248.902344 224.144531 253.027344 229.757812 256 C 237.679688 260.953125 246.921875 263.097656 257.484375 262.4375 C 258.476562 263.757812 259.300781 265.078125 259.960938 266.398438 L 315.417969 360.976562 C 316.410156 362.957031 317.398438 364.441406 318.390625 365.429688 C 327.304688 356.847656 336.960938 350.988281 347.359375 347.851562 C 357.757812 344.71875 368.484375 344.140625 379.542969 346.121094 C 390.601562 348.101562 400.257812 352.390625 408.511719 358.996094 C 419.074219 367.246094 426.253906 377.398438 430.050781 389.445312 C 433.847656 401.496094 433.929688 413.628906 430.296875 425.839844 C 427.65625 435.085938 422.953125 443.335938 416.1875 450.601562 C 409.417969 457.863281 401.414062 463.308594 392.171875 466.941406 C 381.9375 471.230469 370.960938 472.632812 359.242188 471.148438 C 347.523438 469.664062 337.042969 465.621094 327.800781 459.015625 C 326.476562 458.027344 324.332031 456.375 321.363281 454.066406 L 318.886719 451.09375 C 317.566406 452.085938 315.75 453.734375 313.4375 456.046875 L 290.167969 478.824219 C 297.757812 486.417969 306.339844 492.769531 315.914062 497.886719 C 325.488281 503.003906 335.554688 506.554688 346.121094 508.535156 L 357.011719 510.515625 L 376.324219 510.515625 L 390.191406 508.039062 C 411.316406 503.746094 429.472656 493.84375 444.65625 478.328125 C 451.921875 471.066406 457.945312 462.730469 462.730469 453.324219 C 467.519531 443.914062 470.734375 434.09375 472.386719 423.859375 C 474.039062 411.976562 473.707031 400.175781 471.398438 388.457031 C 469.085938 376.738281 464.960938 366.089844 459.015625 356.519531 C 453.074219 346.945312 445.8125 338.527344 437.230469 331.265625 C 428.648438 324.003906 419.238281 318.226562 409.003906 313.933594 C 397.78125 309.3125 386.144531 306.671875 374.097656 306.011719 C 362.046875 305.351562 350.246094 306.507812 338.691406 309.476562 L 330.273438 311.953125 L 290.167969 244.117188 C 294.457031 237.84375 297.097656 231.738281 298.089844 225.796875 C 299.738281 215.230469 297.59375 205.328125 291.652344 196.085938 C 286.371094 187.832031 279.109375 182.054688 269.863281 178.753906 C 264.253906 176.773438 258.476562 175.785156 252.535156 175.785156 Z M 112.898438 306.507812 C 93.75 310.796875 77.246094 319.546875 63.382812 332.75 C 47.867188 347.273438 37.796875 364.605469 33.175781 384.742188 L 31.195312 396.625 L 31.195312 414.949219 L 32.1875 420.394531 C 32.847656 424.6875 33.507812 427.988281 34.167969 430.296875 C 36.476562 440.53125 40.519531 450.269531 46.296875 459.511719 C 52.074219 468.753906 59.089844 476.84375 67.34375 483.777344 C 83.847656 497.308594 102.828125 505.398438 124.285156 508.039062 C 136.832031 509.359375 149.375 508.617188 161.917969 505.808594 C 174.464844 503.003906 186.015625 498.300781 196.582031 491.699219 C 214.074219 480.472656 226.949219 465.453125 235.203125 446.636719 C 237.515625 441.027344 239.824219 433.597656 242.136719 424.355469 C 244.117188 424.027344 247.085938 424.027344 251.046875 424.355469 L 312.945312 425.347656 C 317.566406 425.347656 320.867188 425.511719 322.847656 425.839844 C 326.476562 432.445312 330.605469 437.558594 335.226562 441.191406 C 339.847656 444.824219 345.046875 447.464844 350.824219 449.113281 C 356.601562 450.765625 362.460938 451.425781 368.402344 451.09375 C 377.644531 450.105469 385.898438 446.804688 393.160156 441.191406 C 402.074219 434.257812 407.355469 425.347656 409.003906 414.453125 C 409.667969 408.839844 409.417969 403.394531 408.261719 398.113281 C 407.109375 392.832031 404.878906 387.878906 401.578125 383.257812 C 396.296875 375.996094 389.53125 370.714844 381.277344 367.410156 C 375.664062 365.101562 369.804688 364.027344 363.699219 364.195312 C 357.589844 364.359375 351.730469 365.597656 346.121094 367.90625 C 336.875 371.867188 329.78125 377.976562 324.828125 386.226562 L 323.34375 389.199219 C 318.722656 389.199219 311.789062 389.035156 302.546875 388.703125 L 246.59375 388.207031 C 241.640625 387.878906 234.542969 387.714844 225.300781 387.714844 L 200.542969 387.21875 L 202.027344 395.636719 C 204.667969 409.832031 202.523438 423.199219 195.589844 435.746094 C 190.96875 444.65625 184.367188 452.085938 175.785156 458.027344 C 167.199219 463.96875 157.792969 467.601562 147.558594 468.921875 C 136.003906 470.902344 124.453125 469.664062 112.898438 465.207031 C 101.34375 460.75 91.933594 453.734375 84.671875 444.164062 C 75.429688 432.609375 70.972656 419.570312 71.304688 405.042969 C 71.632812 392.832031 75.429688 381.441406 82.691406 370.878906 C 86.984375 364.605469 92.265625 359.324219 98.539062 355.03125 C 104.808594 350.742188 111.578125 347.605469 118.839844 345.625 L 123.296875 344.140625 Z M 112.898438 306.507812 "/>
</svg>